<svg xmlns="http://www.w3.org/2000/svg" width="716" height="716" viewBox="208 462 716 446">
<path fill="black" stroke="black" fill-rule="evenodd" d="M 557 606 C 562 608 561 610 563 614 C 563 614 564 614 564 614 C 564 615 564 615 564 616 C 564 616 565 616 565 616 C 565 617 565 617 565 618 C 565 618 566 618 566 618 C 567 620 567 622 568 624 C 568 624 569 624 569 624 C 569 625 569 626 569 627 C 569 627 570 627 570 627 C 570 628 570 628 570 629 C 570 629 571 629 571 629 C 571 630 571 631 571 632 C 571 632 572 632 572 632 C 572 633 572 633 572 634 C 572 634 573 634 573 634 C 573 637 574 639 574 642 C 574 642 575 642 575 642 C 575 644 576 646 576 648 C 561 645 546 643 531 640 C 527 631 524 621 520 612 C 518 611 517 610 514 609 C 513 601 511 593 510 585 C 510 585 509 585 509 585 C 509 583 509 580 509 578 C 507 570 506 563 504 555 C 504 555 503 555 503 555 C 503 554 503 554 503 553 C 503 553 502 553 502 553 C 502 552 502 552 502 551 C 502 551 501 551 501 551 C 501 550 501 550 501 549 C 500 549 500 548 499 548 C 499 547 499 547 499 546 C 499 546 498 546 498 546 C 498 544 498 542 498 540 C 498 534 499 527 497 523 C 497 523 496 523 496 523 C 496 522 496 521 496 520 C 496 520 495 520 495 520 C 495 519 495 519 495 518 C 495 518 494 518 494 518 C 493 515 493 512 492 509 C 492 509 491 509 491 509 C 491 508 491 508 491 507 C 491 507 490 507 490 507 C 489 504 489 501 488 498 C 488 498 487 498 487 498 C 487 497 486 495 486 494 C 486 494 485 494 485 494 C 485 493 485 493 485 492 C 485 492 484 492 484 492 C 484 491 484 490 484 489 C 484 489 483 489 483 489 C 483 488 483 488 483 487 C 483 487 482 487 482 487 C 481 485 481 483 480 481 C 480 481 479 481 479 481 C 479 480 479 479 479 478 C 479 478 478 478 478 478 C 478 477 477 475 477 474 C 477 474 476 474 476 474 C 476 473 476 473 476 472 C 476 472 475 472 475 472 C 475 470 474 469 474 467 C 474 467 473 467 473 467 C 472 465 470 464 469 462 C 483 462 498 462 512 462 C 514 467 518 470 520 474 C 520 475 520 475 520 476 C 520 476 521 476 521 476 C 521 477 521 477 521 478 C 521 478 522 478 522 478 C 522 479 522 479 522 480 C 522 480 523 480 523 480 C 523 481 523 481 523 482 C 523 482 524 482 524 482 C 525 484 525 486 526 488 C 526 488 527 488 527 488 C 527 490 528 492 528 494 C 528 494 529 494 529 494 C 529 495 529 495 529 496 C 529 496 530 496 530 496 C 530 498 531 500 531 502 C 531 502 532 502 532 502 C 532 503 532 503 532 504 C 532 504 533 504 533 504 C 533 505 533 506 533 507 C 533 507 534 507 534 507 C 534 508 534 508 534 509 C 534 509 535 509 535 509 C 535 510 535 511 535 512 C 535 512 536 512 536 512 C 536 513 536 514 536 515 C 536 515 537 515 537 515 C 537 516 537 517 537 518 C 537 518 538 518 538 518 C 538 519 538 520 538 521 C 538 521 539 521 539 521 C 539 522 539 524 539 525 C 539 525 540 525 540 525 C 540 531 540 537 540 543 C 540 543 541 543 541 543 C 541 544 541 545 541 546 C 542 546 542 547 543 547 C 543 548 543 548 543 549 C 544 549 544 550 545 550 C 545 551 545 551 545 552 C 546 552 546 553 547 553 C 547 554 547 555 547 556 C 547 556 548 556 548 556 C 548 559 549 561 549 564 C 553 576 554 592 557 606 zM 245 855 C 241 855 240 853 238 852 C 237 852 236 852 235 852 C 235 852 235 851 235 851 C 234 851 232 850 231 850 C 231 850 231 849 231 849 C 230 849 229 849 228 849 C 228 849 228 848 228 848 C 227 848 225 847 224 847 C 224 847 224 846 224 846 C 220 844 217 846 216 840 C 212 837 212 824 211 818 C 211 814 211 810 211 806 C 208 797 210 782 210 771 C 210 765 210 757 211 752 C 211 742 211 732 211 722 C 211 722 212 722 212 722 C 212 718 212 714 212 710 C 212 710 213 710 213 710 C 213 707 213 704 213 701 C 213 701 214 701 214 701 C 214 700 214 700 214 699 C 214 699 215 699 215 699 C 215 698 215 697 215 696 C 215 696 216 696 216 696 C 216 695 216 694 216 693 C 217 692 218 692 219 691 C 221 689 224 686 226 685 C 227 685 228 685 229 685 C 229 685 229 684 229 684 C 230 684 231 684 232 684 C 232 684 232 683 232 683 C 234 683 236 683 238 683 C 238 683 238 682 238 682 C 240 682 242 682 244 682 C 244 682 244 681 244 681 C 246 681 249 681 251 681 C 251 681 251 680 251 680 C 253 680 256 680 258 680 C 258 680 258 679 258 679 C 260 679 263 679 265 679 C 265 679 265 678 265 678 C 272 677 278 677 285 676 C 285 676 285 677 285 677 C 288 677 290 677 293 677 C 299 679 305 682 312 683 C 312 683 312 684 312 684 C 299 685 285 687 274 690 C 271 690 267 691 264 691 C 264 691 264 692 264 692 C 262 692 261 692 259 692 C 259 692 259 693 259 693 C 258 693 256 693 255 693 C 255 694 254 694 254 695 C 253 695 253 695 252 695 C 252 695 252 696 252 696 C 251 696 251 696 250 696 C 249 697 249 698 248 699 C 248 699 247 699 247 699 C 247 700 247 700 247 701 C 246 701 246 702 245 702 C 245 703 245 704 245 705 C 245 705 244 705 244 705 C 244 706 244 708 244 709 C 244 709 243 709 243 709 C 243 711 243 714 243 716 C 243 716 242 716 242 716 C 242 720 242 724 242 728 C 242 728 241 728 241 728 C 241 732 241 737 241 741 C 239 749 239 761 239 772 C 239 775 238 779 238 782 C 238 782 239 782 239 782 C 241 788 238 798 240 803 C 240 815 241 826 241 838 C 243 843 245 849 245 855 zM 638 676 C 644 676 653 678 658 680 C 660 680 662 680 664 680 C 671 682 680 683 686 685 C 688 685 690 685 692 685 C 704 689 718 689 730 693 C 740 694 750 696 760 697 C 760 697 760 698 760 698 C 762 698 763 698 765 698 C 765 698 765 699 765 699 C 767 699 769 699 771 699 C 771 699 771 700 771 700 C 773 700 775 700 777 700 C 777 700 777 701 777 701 C 779 701 781 701 783 701 C 783 701 783 702 783 702 C 785 702 787 702 789 702 C 789 702 789 703 789 703 C 791 703 792 703 794 703 C 794 703 794 704 794 704 C 796 704 798 704 800 704 C 815 709 834 709 849 714 C 851 714 853 714 855 714 C 855 714 855 715 855 715 C 857 715 858 715 860 715 C 860 715 860 716 860 716 C 862 716 864 716 866 716 C 866 716 866 717 866 717 C 870 717 873 718 877 718 C 877 718 877 719 877 719 C 879 719 880 719 882 719 C 882 719 882 720 882 720 C 883 720 885 720 886 720 C 886 720 886 721 886 721 C 887 721 889 721 890 721 C 890 721 890 722 890 722 C 893 722 895 723 898 723 C 898 723 898 724 898 724 C 900 725 902 725 904 726 C 904 726 904 727 904 727 C 905 727 905 727 906 727 C 906 727 906 728 906 728 C 907 728 908 728 909 728 C 912 731 915 733 918 736 C 923 744 923 756 923 769 C 923 775 924 782 924 788 C 924 788 923 788 923 788 C 923 789 923 791 923 792 C 923 797 923 802 923 807 C 923 807 922 807 922 807 C 922 809 921 811 921 813 C 920 813 919 814 918 814 C 919 817 920 817 921 819 C 921 819 922 819 922 819 C 922 819 921 828 921 830 C 921 840 922 854 920 863 C 918 869 922 877 918 881 C 918 881 918 882 918 882 C 914 883 910 883 906 884 C 906 884 906 885 906 885 C 904 885 903 885 901 885 C 894 887 885 890 877 891 C 878 872 878 852 879 833 C 879 833 878 833 878 833 C 878 831 878 829 878 827 C 878 827 877 827 877 827 C 876 826 876 824 875 823 C 876 822 877 822 878 821 C 878 811 879 801 879 791 C 879 779 881 765 878 755 C 878 754 878 752 878 751 C 878 751 877 751 877 751 C 877 750 877 750 877 749 C 877 749 876 749 876 749 C 876 747 875 746 875 744 C 874 744 874 743 873 743 C 873 742 873 742 873 741 C 872 741 871 740 870 740 C 870 739 869 739 869 738 C 868 738 868 738 867 738 C 867 737 866 737 866 736 C 865 736 863 735 862 735 C 862 735 862 734 862 734 C 861 734 859 733 858 733 C 858 733 858 732 858 732 C 855 732 853 731 850 731 C 843 729 833 727 826 725 C 824 725 823 725 821 725 C 813 723 804 721 796 719 C 794 719 793 719 791 719 C 791 719 791 718 791 718 C 785 717 778 716 772 715 C 752 709 729 707 709 701 C 707 701 706 701 704 701 C 704 701 704 700 704 700 C 702 700 701 700 699 700 C 699 700 699 699 699 699 C 697 699 696 699 694 699 C 694 699 694 698 694 698 C 692 698 691 698 689 698 C 689 698 689 697 689 697 C 687 697 686 697 684 697 C 674 694 661 693 651 690 C 647 689 642 690 639 688 C 637 686 638 680 638 676 zM 459 764 C 465 764 470 763 474 762 C 476 762 479 762 481 762 C 481 762 481 761 481 761 C 483 761 486 761 488 761 C 488 761 488 760 488 760 C 490 760 492 760 494 760 C 494 760 494 759 494 759 C 501 758 508 758 515 757 C 515 757 515 756 515 756 C 517 756 519 756 521 756 C 521 756 521 755 521 755 C 523 755 526 755 528 755 C 528 755 528 754 528 754 C 530 754 533 754 535 754 C 535 754 535 753 535 753 C 537 753 539 753 541 753 C 541 753 541 752 541 752 C 543 752 546 752 548 752 C 548 752 548 751 548 751 C 550 751 553 751 555 751 C 555 751 555 750 555 750 C 557 750 559 750 561 750 C 561 750 561 749 561 749 C 562 749 567 750 570 750 C 570 750 570 751 570 751 C 570 751 571 751 571 751 C 571 753 571 755 571 757 C 571 757 572 757 572 757 C 572 786 572 814 572 843 C 572 856 572 868 572 881 C 572 881 571 881 571 881 C 571 882 571 882 571 883 C 571 883 570 883 570 883 C 570 884 569 885 569 886 C 561 886 555 888 549 890 C 547 890 546 890 544 890 C 544 890 544 891 544 891 C 542 891 541 891 539 891 C 539 891 539 892 539 892 C 538 892 536 892 535 892 C 535 892 535 893 535 893 C 533 893 532 893 530 893 C 523 895 513 897 506 899 C 504 899 503 899 501 899 C 501 899 501 900 501 900 C 500 900 498 900 497 900 C 497 900 497 901 497 901 C 495 901 494 901 492 901 C 492 901 492 902 492 902 C 490 902 489 902 487 902 C 487 902 487 903 487 903 C 486 903 484 903 483 903 C 483 903 483 904 483 904 C 480 904 476 905 473 905 C 468 907 464 908 457 908 C 453 900 455 879 455 867 C 455 835 455 803 455 771 C 457 769 458 767 459 764 z"/>
</svg>