<svg xmlns="http://www.w3.org/2000/svg" width="1860" height="1860" viewBox="61 455 1860 546">
<path fill="black" stroke="black" fill-rule="evenodd" d="M 1669 558 C 1675 559 1681 560 1687 561 C 1687 561 1687 562 1687 562 C 1688 562 1688 562 1689 562 C 1689 562 1689 563 1689 563 C 1690 563 1691 563 1692 563 C 1692 563 1692 564 1692 564 C 1695 567 1693 578 1693 583 C 1695 585 1693 593 1693 598 C 1693 612 1692 629 1694 641 C 1697 641 1701 640 1704 640 C 1704 640 1704 639 1704 639 C 1710 639 1716 639 1722 639 C 1722 639 1722 638 1722 638 C 1724 638 1725 639 1725 639 C 1729 639 1732 639 1736 639 C 1736 639 1736 640 1736 640 C 1742 640 1748 640 1754 640 C 1754 640 1754 641 1754 641 C 1756 641 1759 641 1761 641 C 1761 641 1761 642 1761 642 C 1771 642 1781 642 1791 642 C 1791 642 1791 643 1791 643 C 1795 643 1798 643 1802 643 C 1802 643 1802 644 1802 644 C 1806 644 1810 644 1814 644 C 1814 644 1814 645 1814 645 C 1816 645 1818 645 1820 645 C 1820 645 1820 646 1820 646 C 1823 646 1825 646 1828 646 C 1828 646 1828 647 1828 647 C 1830 647 1833 647 1835 647 C 1835 647 1835 648 1835 648 C 1842 648 1849 648 1856 648 C 1863 650 1875 650 1882 652 C 1884 652 1885 652 1887 652 C 1887 652 1887 653 1887 653 C 1890 654 1892 652 1894 652 C 1894 652 1894 653 1894 653 C 1895 653 1897 654 1898 654 C 1898 654 1898 655 1898 655 C 1899 655 1901 655 1902 655 C 1902 655 1902 656 1902 656 C 1904 656 1905 656 1907 656 C 1907 657 1908 657 1908 658 C 1910 658 1913 659 1915 659 C 1915 659 1915 660 1915 660 C 1920 664 1916 667 1918 674 C 1921 685 1919 703 1917 712 C 1915 713 1915 713 1913 714 C 1914 717 1915 720 1916 722 C 1916 726 1916 731 1916 735 C 1916 746 1917 761 1914 769 C 1910 771 1907 773 1902 774 C 1902 775 1902 775 1902 776 C 1898 777 1895 777 1891 778 C 1891 778 1891 779 1891 779 C 1890 779 1890 779 1889 779 C 1889 779 1889 780 1889 780 C 1888 780 1888 780 1887 780 C 1887 780 1887 781 1887 781 C 1886 781 1886 781 1885 781 C 1885 781 1885 782 1885 782 C 1884 782 1884 782 1883 782 C 1883 782 1883 783 1883 783 C 1881 783 1879 784 1877 784 C 1877 784 1877 785 1877 785 C 1876 785 1876 785 1875 785 C 1875 785 1875 786 1875 786 C 1874 786 1872 786 1871 786 C 1871 786 1871 787 1871 787 C 1869 788 1867 788 1865 789 C 1865 789 1865 790 1865 790 C 1864 790 1863 790 1862 790 C 1862 790 1862 791 1862 791 C 1861 791 1861 791 1860 791 C 1860 791 1860 792 1860 792 C 1859 792 1858 792 1857 792 C 1857 792 1857 793 1857 793 C 1855 793 1854 794 1852 794 C 1852 794 1852 795 1852 795 C 1851 795 1849 796 1848 796 C 1848 796 1848 797 1848 797 C 1847 797 1846 797 1845 797 C 1845 797 1845 798 1845 798 C 1844 798 1843 798 1842 798 C 1842 798 1842 799 1842 799 C 1841 799 1841 799 1840 799 C 1840 799 1840 800 1840 800 C 1839 800 1838 800 1837 800 C 1837 800 1837 801 1837 801 C 1836 801 1836 801 1835 801 C 1835 801 1835 802 1835 802 C 1834 802 1832 802 1831 802 C 1831 802 1831 803 1831 803 C 1829 804 1827 804 1825 805 C 1825 805 1825 806 1825 806 C 1824 806 1824 806 1823 806 C 1823 806 1823 807 1823 807 C 1821 807 1818 808 1816 808 C 1816 808 1816 809 1816 809 C 1815 809 1815 809 1814 809 C 1814 809 1814 810 1814 810 C 1812 810 1811 811 1809 811 C 1809 811 1809 812 1809 812 C 1807 812 1806 812 1804 812 C 1804 812 1804 813 1804 813 C 1803 813 1803 813 1802 813 C 1802 813 1802 814 1802 814 C 1799 815 1796 816 1793 817 C 1793 817 1793 818 1793 818 C 1792 818 1792 818 1791 818 C 1791 818 1791 819 1791 819 C 1790 819 1790 819 1789 819 C 1789 820 1788 820 1788 821 C 1787 821 1785 821 1784 821 C 1784 821 1784 822 1784 822 C 1780 822 1776 823 1772 823 C 1767 821 1759 821 1754 819 C 1752 819 1750 819 1748 819 C 1748 819 1748 818 1748 818 C 1746 818 1744 818 1742 818 C 1742 818 1742 817 1742 817 C 1740 817 1738 817 1736 817 C 1736 817 1736 816 1736 816 C 1734 816 1732 816 1730 816 C 1714 811 1693 811 1677 806 C 1673 806 1669 805 1665 805 C 1665 805 1665 804 1665 804 C 1663 804 1661 804 1659 804 C 1650 801 1638 801 1629 798 C 1625 798 1621 797 1617 797 C 1608 794 1596 794 1587 791 C 1583 791 1579 790 1575 790 C 1563 786 1546 786 1534 782 C 1529 782 1525 781 1520 781 C 1504 776 1484 777 1468 772 C 1464 772 1459 771 1455 771 C 1455 771 1455 770 1455 770 C 1453 770 1451 770 1449 770 C 1449 770 1449 769 1449 769 C 1447 769 1445 769 1443 769 C 1443 769 1443 768 1443 768 C 1441 768 1438 768 1436 768 C 1436 768 1436 767 1436 767 C 1434 767 1432 767 1430 767 C 1430 767 1430 766 1430 766 C 1428 766 1425 766 1423 766 C 1405 761 1384 761 1366 756 C 1359 755 1353 755 1346 754 C 1346 754 1346 753 1346 753 C 1344 753 1342 753 1340 753 C 1340 753 1340 752 1340 752 C 1338 752 1336 752 1334 752 C 1334 752 1334 751 1334 751 C 1332 751 1329 751 1327 751 C 1309 746 1288 746 1270 741 C 1268 741 1265 741 1263 741 C 1258 739 1249 739 1244 737 C 1235 736 1227 735 1218 734 C 1211 732 1200 731 1193 729 C 1189 729 1184 728 1180 728 C 1177 727 1168 724 1163 726 C 1140 731 1116 736 1093 741 C 1092 747 1092 755 1092 763 C 1092 767 1092 770 1092 774 C 1092 774 1091 774 1091 774 C 1091 775 1091 776 1091 777 C 1090 777 1090 778 1089 778 C 1089 779 1089 780 1089 781 C 1089 781 1088 781 1088 781 C 1089 787 1089 794 1090 800 C 1090 800 1089 800 1089 800 C 1089 813 1088 827 1088 840 C 1087 840 1086 841 1085 841 C 1083 843 1080 842 1077 843 C 1077 843 1077 844 1077 844 C 1076 844 1074 844 1073 844 C 1063 847 1050 850 1040 853 C 1038 853 1037 853 1035 853 C 1018 858 999 862 982 867 C 978 868 973 868 969 869 C 969 869 969 870 969 870 C 968 870 966 870 965 870 C 965 870 965 871 965 871 C 964 871 962 871 961 871 C 961 871 961 872 961 872 C 960 872 958 872 957 872 C 957 872 957 873 957 873 C 954 873 951 874 948 874 C 948 874 948 875 948 875 C 947 875 945 875 944 875 C 944 875 944 876 944 876 C 943 876 941 876 940 876 C 934 878 927 881 919 881 C 921 868 921 851 921 835 C 921 830 922 824 922 819 C 922 819 921 819 921 819 C 920 817 919 817 918 814 C 921 813 920 814 921 811 C 925 807 921 800 923 794 C 924 791 925 773 924 768 C 924 768 923 768 923 768 C 923 762 923 755 923 749 C 922 745 920 741 919 737 C 918 737 918 736 917 736 C 917 735 916 734 916 733 C 915 733 914 732 913 732 C 912 731 912 730 911 729 C 910 729 908 728 907 728 C 907 728 907 727 907 727 C 905 726 903 726 901 725 C 901 725 901 724 901 724 C 899 724 896 723 894 723 C 894 723 894 722 894 722 C 893 722 892 722 891 722 C 891 722 891 721 891 721 C 890 721 888 721 887 721 C 876 717 862 716 851 713 C 847 713 844 712 840 712 C 840 712 840 711 840 711 C 838 711 836 711 834 711 C 834 711 834 710 834 710 C 832 710 831 710 829 710 C 829 710 829 709 829 709 C 827 709 825 709 823 709 C 806 704 784 703 767 698 C 763 698 759 697 755 697 C 755 697 755 696 755 696 C 749 695 743 695 737 694 C 727 691 714 690 704 687 C 702 687 700 687 698 687 C 690 685 679 683 671 681 C 669 681 667 681 665 681 C 657 679 647 677 638 676 C 638 680 638 685 638 689 C 644 689 650 691 655 692 C 657 692 659 692 661 692 C 661 692 661 693 661 693 C 663 693 665 693 667 693 C 667 693 667 694 667 694 C 671 694 674 695 678 695 C 688 698 702 700 712 703 C 720 704 729 706 737 707 C 755 713 777 714 795 720 C 797 720 798 720 800 720 C 800 720 800 721 800 721 C 802 721 803 721 805 721 C 805 721 805 722 805 722 C 807 722 808 722 810 722 C 810 722 810 723 810 723 C 812 723 813 723 815 723 C 815 723 815 724 815 724 C 818 724 822 725 825 725 C 845 731 869 730 877 749 C 877 750 877 751 877 752 C 877 752 878 752 878 752 C 878 753 878 754 878 755 C 878 755 879 755 879 755 C 879 760 879 765 879 770 C 879 770 880 770 880 770 C 880 775 879 779 879 784 C 879 793 880 806 878 813 C 878 815 878 818 878 820 C 878 820 877 820 877 820 C 877 821 876 822 876 823 C 876 823 875 823 875 823 C 875 824 878 827 878 827 C 878 830 878 832 878 835 C 878 835 879 835 879 835 C 879 837 878 838 878 838 C 878 844 878 851 878 857 C 878 864 878 870 878 877 C 878 877 877 877 877 877 C 876 881 877 889 878 892 C 871 892 863 895 857 897 C 856 897 854 897 853 897 C 853 897 853 898 853 898 C 852 898 850 898 849 898 C 849 898 849 899 849 899 C 848 899 846 899 845 899 C 845 899 845 900 845 900 C 842 900 839 901 836 901 C 836 901 836 902 836 902 C 835 902 833 902 832 902 C 832 902 832 903 832 903 C 831 903 829 903 828 903 C 828 903 828 904 828 904 C 827 904 825 904 824 904 C 824 904 824 905 824 905 C 823 905 821 905 820 905 C 820 905 820 906 820 906 C 819 906 817 906 816 906 C 816 906 816 907 816 907 C 814 907 813 907 811 907 C 796 912 777 915 762 920 C 760 920 759 920 757 920 C 757 920 757 921 757 921 C 756 921 754 921 753 921 C 753 921 753 922 753 922 C 752 922 750 922 749 922 C 749 922 749 923 749 923 C 748 923 746 923 745 923 C 745 923 745 924 745 924 C 744 924 742 924 741 924 C 741 924 741 925 741 925 C 738 925 736 925 733 925 C 733 925 733 926 733 926 C 732 926 730 926 729 926 C 729 926 729 927 729 927 C 728 927 727 927 726 927 C 726 927 726 928 726 928 C 725 928 724 928 723 928 C 723 928 723 929 723 929 C 722 929 721 929 720 929 C 720 929 720 930 720 930 C 719 930 717 930 716 930 C 716 930 716 931 716 931 C 715 931 713 931 712 931 C 712 931 712 932 712 932 C 711 932 709 932 708 932 C 708 932 708 933 708 933 C 707 933 705 933 704 933 C 704 933 704 934 704 934 C 702 934 701 934 699 934 C 684 939 665 942 650 947 C 647 947 644 948 641 948 C 630 952 616 954 604 958 C 601 958 598 959 595 959 C 583 963 569 965 557 969 C 553 970 548 970 544 971 C 525 978 503 981 484 987 C 482 987 481 987 479 987 C 479 987 479 988 479 988 C 478 988 476 988 475 988 C 475 988 475 989 475 989 C 474 989 472 989 471 989 C 471 989 471 990 471 990 C 470 990 468 990 467 990 C 467 990 467 991 467 991 C 466 991 464 991 463 991 C 463 991 463 992 463 992 C 462 992 460 992 459 992 C 459 992 459 993 459 993 C 456 993 453 994 450 994 C 450 994 450 995 450 995 C 449 995 447 995 446 995 C 446 995 446 996 446 996 C 445 996 443 996 442 996 C 442 996 442 997 442 997 C 441 997 439 997 438 997 C 438 997 438 998 438 998 C 437 998 435 998 434 998 C 433 998 429 1001 426 1000 C 426 1000 426 999 426 999 C 425 999 425 999 424 999 C 424 999 424 998 424 998 C 423 998 423 998 422 998 C 422 998 422 997 422 997 C 421 997 421 997 420 997 C 420 997 420 996 420 996 C 419 996 419 996 418 996 C 418 996 418 995 418 995 C 417 995 417 995 416 995 C 416 995 416 994 416 994 C 415 994 415 994 414 994 C 414 994 414 993 414 993 C 413 993 411 992 410 992 C 410 992 410 991 410 991 C 409 991 408 991 407 991 C 407 991 407 990 407 990 C 406 990 404 989 403 989 C 403 989 403 988 403 988 C 402 988 402 988 401 988 C 401 988 401 987 401 987 C 400 987 400 987 399 987 C 399 987 399 986 399 986 C 397 985 395 985 393 984 C 393 984 393 983 393 983 C 392 983 391 983 390 983 C 390 983 390 982 390 982 C 388 981 386 981 384 980 C 384 980 384 979 384 979 C 383 979 383 979 382 979 C 382 979 382 978 382 978 C 381 978 381 978 380 978 C 380 978 380 977 380 977 C 375 975 369 972 364 970 C 364 970 364 969 364 969 C 363 969 363 969 362 969 C 362 969 362 968 362 968 C 361 968 360 968 359 968 C 359 968 359 967 359 967 C 357 966 355 966 353 965 C 353 965 353 964 353 964 C 352 964 352 964 351 964 C 351 964 351 963 351 963 C 350 963 350 963 349 963 C 349 963 349 962 349 962 C 348 962 348 962 347 962 C 347 962 347 961 347 961 C 346 961 346 961 345 961 C 345 961 345 960 345 960 C 344 960 344 960 343 960 C 343 960 343 959 343 959 C 342 959 342 959 341 959 C 341 959 341 958 341 958 C 340 958 340 958 339 958 C 339 958 339 957 339 957 C 338 957 338 957 337 957 C 337 957 337 956 337 956 C 336 956 336 956 335 956 C 335 956 335 955 335 955 C 334 955 333 955 332 955 C 332 955 332 954 332 954 C 331 954 329 953 328 953 C 328 953 328 952 328 952 C 327 952 327 952 326 952 C 326 952 326 951 326 951 C 325 951 325 951 324 951 C 324 951 324 950 324 950 C 322 949 320 949 318 948 C 318 948 318 947 318 947 C 317 947 316 947 315 947 C 315 947 315 946 315 946 C 313 945 311 945 309 944 C 309 944 309 943 309 943 C 308 943 308 943 307 943 C 307 943 307 942 307 942 C 306 942 305 942 304 942 C 304 941 303 941 303 940 C 302 940 302 940 301 940 C 301 940 301 939 301 939 C 300 939 300 939 299 939 C 299 939 299 938 299 938 C 298 938 298 938 297 938 C 297 938 297 937 297 937 C 296 937 296 937 295 937 C 295 937 295 936 295 936 C 294 936 294 936 293 936 C 293 935 292 935 292 934 C 291 934 291 934 290 934 C 290 934 290 933 290 933 C 289 933 288 933 287 933 C 287 933 287 932 287 932 C 286 932 284 931 283 931 C 283 931 283 930 283 930 C 282 930 281 930 280 930 C 280 930 280 929 280 929 C 279 929 279 929 278 929 C 278 929 278 928 278 928 C 277 928 276 928 275 928 C 275 928 275 927 275 927 C 273 926 271 926 269 925 C 269 925 269 924 269 924 C 268 924 268 924 267 924 C 267 924 267 923 267 923 C 266 923 266 923 265 923 C 265 923 265 922 265 922 C 264 922 264 922 263 922 C 263 922 263 921 263 921 C 262 921 262 921 261 921 C 261 921 261 920 261 920 C 260 920 260 920 259 920 C 259 920 259 919 259 919 C 258 919 258 919 257 919 C 257 919 257 918 257 918 C 256 918 256 918 255 918 C 255 918 255 917 255 917 C 253 917 251 916 249 916 C 249 916 249 915 249 915 C 248 915 248 915 247 915 C 247 914 246 914 246 913 C 243 912 240 911 237 910 C 237 910 237 909 237 909 C 236 909 236 909 235 909 C 235 908 234 908 234 907 C 233 907 231 906 230 906 C 230 906 230 905 230 905 C 228 904 226 904 224 903 C 224 903 224 902 224 902 C 223 902 222 902 221 902 C 221 902 221 901 221 901 C 220 901 218 900 217 900 C 217 900 217 899 217 899 C 216 899 216 899 215 899 C 215 899 215 898 215 898 C 214 898 214 898 213 898 C 213 898 213 897 213 897 C 212 897 212 897 211 897 C 211 897 211 896 211 896 C 209 895 207 895 205 894 C 205 894 205 893 205 893 C 203 893 201 892 199 892 C 199 892 199 891 199 891 C 198 891 196 890 195 890 C 195 890 195 889 195 889 C 194 889 193 889 192 889 C 192 889 192 888 192 888 C 191 888 189 887 188 887 C 188 887 188 886 188 886 C 187 886 185 885 184 885 C 184 884 183 884 183 883 C 182 883 182 883 181 883 C 181 883 181 882 181 882 C 180 882 180 882 179 882 C 179 882 179 881 179 881 C 178 881 178 881 177 881 C 177 881 177 880 177 880 C 176 880 176 880 175 880 C 175 880 175 879 175 879 C 174 879 174 879 173 879 C 173 879 173 878 173 878 C 172 878 172 878 171 878 C 171 878 171 877 171 877 C 169 876 167 876 165 875 C 165 875 165 874 165 874 C 164 874 163 874 162 874 C 162 874 162 873 162 873 C 161 873 161 873 160 873 C 160 873 160 872 160 872 C 159 872 158 872 157 872 C 157 871 156 871 156 870 C 155 870 153 869 152 869 C 152 869 152 868 152 868 C 150 867 148 867 146 866 C 146 866 146 865 146 865 C 145 865 144 865 143 865 C 143 864 142 864 142 863 C 140 863 138 862 136 862 C 136 861 135 861 135 860 C 133 859 131 859 129 858 C 129 858 129 857 129 857 C 128 857 128 857 127 857 C 127 857 127 856 127 856 C 126 856 126 856 125 856 C 125 856 125 855 125 855 C 123 854 121 854 119 853 C 119 853 119 852 119 852 C 118 852 117 852 116 852 C 116 852 116 851 116 851 C 114 850 112 850 110 849 C 110 849 110 848 110 848 C 109 848 109 848 108 848 C 108 848 108 847 108 847 C 107 847 107 847 106 847 C 106 847 106 846 106 846 C 105 846 105 846 104 846 C 104 846 104 845 104 845 C 103 845 103 845 102 845 C 102 845 102 844 102 844 C 101 844 101 844 100 844 C 100 844 100 843 100 843 C 99 843 98 843 97 843 C 97 843 97 842 97 842 C 96 842 94 841 93 841 C 93 841 93 840 93 840 C 92 840 91 840 90 840 C 90 839 89 839 89 838 C 88 838 86 837 85 837 C 85 837 85 836 85 836 C 84 836 82 835 81 835 C 81 835 81 834 81 834 C 80 834 79 834 78 834 C 78 834 78 833 78 833 C 77 833 75 832 74 832 C 74 832 74 831 74 831 C 73 831 71 831 70 831 C 70 830 69 830 69 829 C 68 829 68 829 67 829 C 67 829 67 828 67 828 C 64 826 65 829 64 825 C 64 825 63 825 63 825 C 63 823 63 820 63 818 C 63 818 62 818 62 818 C 61 814 62 792 63 789 C 63 789 64 789 64 789 C 64 788 64 786 64 785 C 65 783 69 783 68 779 C 67 779 67 778 66 778 C 66 762 65 747 65 731 C 65 725 66 720 66 714 C 66 714 65 714 65 714 C 64 709 65 699 66 695 C 66 690 66 685 66 680 C 66 671 67 663 67 654 C 67 654 68 654 68 654 C 69 650 66 651 66 650 C 66 647 66 645 66 642 C 66 637 66 631 66 626 C 66 626 65 626 65 626 C 65 619 66 611 66 604 C 66 604 67 604 67 604 C 67 604 67 603 67 603 C 74 603 80 602 85 600 C 89 600 93 600 97 600 C 97 600 97 599 97 599 C 100 599 104 599 107 599 C 107 599 107 598 107 598 C 124 597 140 597 157 596 C 157 596 157 595 157 595 C 161 595 166 595 170 595 C 170 595 170 594 170 594 C 171 594 173 594 174 594 C 177 594 181 594 184 594 C 189 593 198 595 203 593 C 213 590 227 593 237 593 C 238 591 238 591 238 588 C 240 587 242 587 244 586 C 244 586 244 585 244 585 C 245 585 247 585 248 585 C 256 582 267 581 278 581 C 278 577 279 574 279 570 C 279 570 280 570 280 570 C 280 566 281 561 281 557 C 279 551 274 549 271 544 C 270 541 269 538 268 535 C 268 535 267 535 267 535 C 267 534 267 532 267 531 C 267 531 266 531 266 531 C 266 530 266 530 266 529 C 266 529 265 529 265 529 C 265 528 265 527 265 526 C 265 526 264 526 264 526 C 264 525 264 524 264 523 C 264 523 263 523 263 523 C 263 522 263 521 263 520 C 263 520 262 520 262 520 C 262 518 262 517 262 515 C 262 515 261 515 261 515 C 261 514 261 514 261 513 C 261 513 260 513 260 513 C 259 507 257 501 256 495 C 256 495 255 495 255 495 C 255 494 255 493 255 492 C 255 492 254 492 254 492 C 254 491 254 490 254 489 C 254 489 253 489 253 489 C 251 482 257 473 259 470 C 260 469 261 469 262 468 C 263 467 263 465 264 464 C 295 464 327 464 358 464 C 361 462 381 463 387 463 C 401 463 414 463 428 463 C 437 460 460 461 470 463 C 471 464 471 465 472 466 C 472 466 473 466 473 466 C 473 467 473 467 473 468 C 473 468 474 468 474 468 C 475 470 475 472 476 474 C 476 474 477 474 477 474 C 477 475 477 476 477 477 C 477 477 478 477 478 477 C 478 478 478 478 478 479 C 478 479 479 479 479 479 C 480 481 480 483 481 485 C 481 485 482 485 482 485 C 482 486 482 487 482 488 C 482 488 483 488 483 488 C 483 489 483 489 483 490 C 483 490 484 490 484 490 C 484 491 485 493 485 494 C 485 494 486 494 486 494 C 486 495 486 496 486 497 C 486 497 487 497 487 497 C 487 498 487 498 487 499 C 487 499 488 499 488 499 C 488 501 489 502 489 504 C 489 504 490 504 490 504 C 491 507 491 510 492 513 C 492 513 493 513 493 513 C 493 514 493 514 493 515 C 493 515 494 515 494 515 C 494 516 494 517 494 518 C 494 518 495 518 495 518 C 495 519 495 520 495 521 C 495 521 496 521 496 521 C 496 522 496 523 496 524 C 496 524 497 524 497 524 C 497 531 497 537 497 544 C 497 544 498 544 498 544 C 499 546 499 548 500 550 C 501 550 501 551 502 551 C 502 552 503 554 503 555 C 503 555 504 555 504 555 C 507 573 511 591 514 609 C 515 609 515 609 516 609 C 517 611 519 612 520 614 C 520 614 521 614 521 614 C 521 615 521 616 521 617 C 521 617 522 617 522 617 C 522 618 523 620 523 621 C 523 621 524 621 524 621 C 524 622 524 623 524 624 C 527 630 529 635 532 641 C 547 643 561 646 576 648 C 576 646 575 644 575 642 C 575 642 574 642 574 642 C 573 638 573 635 572 631 C 572 631 571 631 571 631 C 571 630 571 630 571 629 C 571 629 570 629 570 629 C 570 628 570 627 570 626 C 570 626 569 626 569 626 C 568 624 568 622 567 620 C 567 620 566 620 566 620 C 566 619 566 619 566 618 C 566 618 565 618 565 618 C 563 613 563 608 557 606 C 556 598 555 589 553 582 C 553 580 553 578 553 576 C 553 576 552 576 552 576 C 552 575 552 573 552 572 C 552 572 551 572 551 572 C 551 571 551 569 551 568 C 551 568 550 568 550 568 C 550 566 550 565 550 563 C 550 563 549 563 549 563 C 549 562 549 560 549 559 C 549 559 548 559 548 559 C 548 558 548 557 548 556 C 548 556 547 556 547 556 C 547 555 547 554 547 553 C 547 553 546 553 546 553 C 546 552 546 552 546 551 C 545 551 545 550 544 550 C 544 549 544 549 544 548 C 543 548 543 547 542 547 C 542 546 542 546 542 545 C 542 545 541 545 541 545 C 541 543 541 541 541 539 C 541 539 540 539 540 539 C 540 534 540 529 540 524 C 540 524 539 524 539 524 C 539 523 539 522 539 521 C 539 521 538 521 538 521 C 538 520 538 518 538 517 C 538 517 537 517 537 517 C 537 515 536 513 536 511 C 536 511 535 511 535 511 C 535 510 535 510 535 509 C 535 509 534 509 534 509 C 534 508 534 507 534 506 C 534 506 533 506 533 506 C 533 505 533 505 533 504 C 533 504 532 504 532 504 C 532 503 532 502 532 501 C 532 501 531 501 531 501 C 531 500 531 500 531 499 C 531 499 530 499 530 499 C 530 497 529 495 529 493 C 529 493 528 493 528 493 C 528 492 528 492 528 491 C 528 491 527 491 527 491 C 527 490 527 489 527 488 C 527 488 526 488 526 488 C 525 486 525 484 524 482 C 524 482 523 482 523 482 C 522 480 522 477 521 475 C 520 475 520 474 519 474 C 519 473 518 471 518 470 C 517 470 517 469 516 469 C 516 468 516 468 516 467 C 515 467 515 466 514 466 C 514 465 514 465 514 464 C 514 463 513 463 512 462 C 514 462 517 462 519 462 C 521 460 527 461 531 461 C 541 461 552 461 562 461 C 600 460 639 460 677 459 C 678 463 680 466 682 469 C 682 470 682 470 682 471 C 682 471 683 471 683 471 C 683 473 684 475 684 477 C 684 477 685 477 685 477 C 685 478 685 478 685 479 C 685 479 686 479 686 479 C 686 480 686 481 686 482 C 686 482 687 482 687 482 C 687 483 688 485 688 486 C 688 486 689 486 689 486 C 689 487 689 489 689 490 C 690 490 690 491 691 491 C 692 493 692 495 693 497 C 694 497 694 498 695 498 C 695 499 695 499 695 500 C 695 500 696 500 696 500 C 696 501 697 503 697 504 C 697 504 698 504 698 504 C 698 507 699 509 699 512 C 699 512 700 512 700 512 C 701 515 702 517 703 519 C 717 517 735 519 748 515 C 758 515 768 515 778 515 C 778 515 778 514 778 514 C 784 512 795 515 801 513 C 811 513 821 513 831 513 C 831 513 831 514 831 514 C 832 514 833 514 834 514 C 834 514 834 515 834 515 C 836 515 838 515 840 515 C 840 514 841 514 841 513 C 842 513 844 513 845 513 C 845 513 845 512 845 512 C 848 512 851 512 854 512 C 854 512 854 511 854 511 C 859 511 863 511 868 511 C 879 511 889 510 900 510 C 900 510 900 509 900 509 C 919 508 937 508 956 507 C 962 507 968 508 974 508 C 974 508 974 507 974 507 C 975 507 977 507 978 507 C 978 507 978 506 978 506 C 982 506 986 506 990 506 C 998 506 1005 505 1013 505 C 1013 505 1013 504 1013 504 C 1022 504 1030 504 1039 504 C 1039 504 1039 503 1039 503 C 1043 503 1048 503 1052 503 C 1052 503 1052 504 1052 504 C 1053 504 1055 504 1056 504 C 1056 504 1056 503 1056 503 C 1061 503 1065 503 1070 503 C 1076 501 1087 504 1093 502 C 1099 500 1109 501 1117 501 C 1126 501 1135 500 1144 500 C 1144 500 1144 501 1144 501 C 1150 501 1155 501 1161 501 C 1163 501 1166 503 1170 502 C 1170 502 1170 501 1170 501 C 1175 501 1179 501 1184 501 C 1184 501 1184 502 1184 502 C 1185 502 1187 502 1188 502 C 1188 502 1188 503 1188 503 C 1193 503 1198 502 1203 502 C 1203 502 1203 503 1203 503 C 1216 503 1228 504 1241 504 C 1241 504 1242 504 1242 504 C 1242 504 1242 505 1242 505 C 1248 505 1255 505 1261 505 C 1261 505 1261 506 1261 506 C 1262 506 1264 506 1265 506 C 1270 506 1276 506 1281 506 C 1281 506 1281 507 1281 507 C 1288 507 1296 507 1303 507 C 1303 507 1303 508 1303 508 C 1304 508 1305 508 1306 508 C 1306 508 1306 509 1306 509 C 1308 510 1309 508 1310 508 C 1310 508 1310 509 1310 509 C 1316 509 1321 508 1327 508 C 1333 510 1346 506 1355 508 C 1364 510 1388 509 1401 510 C 1416 510 1430 511 1445 511 C 1445 511 1445 512 1445 512 C 1450 512 1455 512 1460 512 C 1462 512 1463 513 1465 513 C 1465 513 1465 512 1465 512 C 1465 512 1466 512 1466 512 C 1466 510 1467 509 1467 507 C 1467 507 1468 507 1468 507 C 1468 506 1468 505 1468 504 C 1468 504 1469 504 1469 504 C 1469 503 1469 502 1469 501 C 1469 501 1470 501 1470 501 C 1470 500 1470 500 1470 499 C 1470 499 1471 499 1471 499 C 1471 497 1472 495 1472 493 C 1472 493 1473 493 1473 493 C 1473 492 1473 492 1473 491 C 1473 491 1474 491 1474 491 C 1474 489 1475 487 1475 485 C 1475 485 1476 485 1476 485 C 1476 484 1476 484 1476 483 C 1476 483 1477 483 1477 483 C 1477 481 1478 479 1478 477 C 1478 477 1479 477 1479 477 C 1479 476 1479 476 1479 475 C 1479 475 1480 475 1480 475 C 1480 474 1480 472 1480 471 C 1480 471 1481 471 1481 471 C 1481 470 1481 470 1481 469 C 1481 469 1482 469 1482 469 C 1482 468 1482 467 1482 466 C 1482 466 1483 466 1483 466 C 1484 464 1486 458 1487 457 C 1488 457 1488 457 1489 457 C 1491 455 1499 456 1503 456 C 1515 456 1528 456 1540 456 C 1542 456 1543 456 1545 456 C 1545 456 1545 457 1545 457 C 1556 457 1566 457 1577 457 C 1595 457 1612 457 1630 457 C 1630 457 1630 458 1630 458 C 1634 458 1639 458 1643 458 C 1655 458 1666 458 1678 458 C 1678 458 1678 459 1678 459 C 1679 459 1679 459 1680 459 C 1682 460 1683 462 1685 464 C 1686 464 1686 465 1687 465 C 1688 467 1688 469 1689 471 C 1690 471 1690 472 1691 472 C 1691 475 1691 477 1691 480 C 1691 480 1690 480 1690 480 C 1689 482 1690 485 1689 487 C 1689 487 1688 487 1688 487 C 1688 488 1688 489 1688 490 C 1688 490 1687 490 1687 490 C 1687 491 1687 492 1687 493 C 1687 493 1686 493 1686 493 C 1686 494 1686 495 1686 496 C 1686 496 1685 496 1685 496 C 1685 497 1685 499 1685 500 C 1685 500 1684 500 1684 500 C 1684 502 1683 504 1683 506 C 1683 506 1682 506 1682 506 C 1682 507 1682 508 1682 509 C 1682 509 1681 509 1681 509 C 1681 510 1681 511 1681 512 C 1681 512 1680 512 1680 512 C 1680 513 1680 514 1680 515 C 1680 515 1679 515 1679 515 C 1679 516 1679 517 1679 518 C 1679 518 1678 518 1678 518 C 1678 519 1678 519 1678 520 C 1678 520 1677 520 1677 520 C 1677 521 1677 521 1677 522 C 1676 522 1676 523 1675 523 C 1675 524 1674 526 1674 527 C 1673 528 1672 528 1671 529 C 1669 531 1668 533 1666 535 C 1666 545 1669 549 1669 558 zM 245 855 C 245 848 243 843 241 837 C 241 833 241 828 241 824 C 241 822 241 821 241 819 C 241 819 240 819 240 819 C 240 812 240 805 240 798 C 240 798 239 798 239 798 C 239 790 239 781 239 773 C 239 763 239 752 241 744 C 241 740 241 735 241 731 C 241 731 242 731 242 731 C 242 727 242 722 242 718 C 242 718 243 718 243 718 C 243 715 243 713 243 710 C 244 708 245 706 245 702 C 246 701 247 701 248 700 C 248 699 248 699 248 698 C 251 696 253 695 256 693 C 259 693 262 692 265 692 C 273 689 284 688 292 686 C 295 686 297 686 300 686 C 300 686 300 685 300 685 C 304 684 309 685 312 684 C 311 683 312 684 310 683 C 310 683 310 682 310 682 C 308 682 306 681 304 681 C 304 681 304 680 304 680 C 303 680 302 680 301 680 C 301 680 301 679 301 679 C 300 679 300 679 299 679 C 299 679 299 678 299 678 C 297 678 296 678 294 678 C 284 675 272 676 263 679 C 261 679 258 679 256 679 C 250 681 242 681 237 683 C 235 683 233 683 231 683 C 231 683 231 684 231 684 C 230 684 229 684 228 684 C 228 684 228 685 228 685 C 226 685 225 686 223 686 C 223 686 223 687 223 687 C 221 689 218 691 216 693 C 216 694 216 694 216 695 C 216 695 215 695 215 695 C 215 696 215 697 215 698 C 215 698 214 698 214 698 C 214 699 214 700 214 701 C 214 701 213 701 213 701 C 213 703 213 706 213 708 C 211 716 211 727 211 737 C 211 740 211 743 211 746 C 211 746 210 746 210 746 C 210 760 210 774 210 788 C 210 795 210 802 210 809 C 210 809 211 809 211 809 C 211 813 211 817 211 821 C 211 821 212 821 212 821 C 212 824 212 827 212 830 C 212 830 213 830 213 830 C 213 832 213 834 213 836 C 213 836 214 836 214 836 C 214 838 215 839 215 841 C 216 842 218 843 219 844 C 219 844 219 845 219 845 C 220 845 220 845 221 845 C 221 845 221 846 221 846 C 222 846 222 846 223 846 C 223 846 223 847 223 847 C 224 847 225 847 226 847 C 226 847 226 848 226 848 C 227 848 227 848 228 848 C 228 848 228 849 228 849 C 230 849 231 850 233 850 C 233 850 233 851 233 851 C 234 851 234 851 235 851 C 235 851 235 852 235 852 C 238 853 241 855 245 855 zM 571 750 C 563 750 560 749 553 751 C 551 751 549 751 547 751 C 547 751 547 752 547 752 C 545 752 542 752 540 752 C 540 752 540 753 540 753 C 538 753 535 753 533 753 C 533 753 533 754 533 754 C 531 754 529 754 527 754 C 527 754 527 755 527 755 C 525 755 522 755 520 755 C 520 755 520 756 520 756 C 518 756 515 756 513 756 C 505 758 494 759 486 761 C 484 761 482 761 480 761 C 480 761 480 762 480 762 C 478 762 475 762 473 762 C 473 762 473 763 473 763 C 469 764 462 763 459 765 C 452 771 455 791 455 803 C 455 838 455 872 455 907 C 457 908 461 908 465 908 C 468 906 470 907 474 906 C 474 906 474 905 474 905 C 476 905 477 905 479 905 C 479 905 479 904 479 904 C 481 904 482 904 484 904 C 503 898 526 896 545 890 C 547 890 548 890 550 890 C 550 890 550 889 550 889 C 551 889 553 889 554 889 C 554 889 554 888 554 888 C 556 888 557 888 559 888 C 559 888 559 887 559 887 C 563 886 567 887 569 885 C 573 882 574 875 572 869 C 572 863 572 856 572 850 C 572 819 572 787 572 756 C 572 756 571 756 571 756 C 571 754 571 752 571 750 z"/>
</svg>