<svg xmlns="http://www.w3.org/2000/svg" width="5509" height="5509" viewBox="78 490 5509 1175">
<path fill="black" stroke="black" fill-rule="evenodd" d="M 1003 601 C 1003 601 1038 595 1073 600 C 1108 605 1142 617 1142 617 C 1142 617 1142 614 1145 613 C 1148 612 1208 595 1257 602 C 1306 609 1332 615 1332 615 C 1332 615 1330 611 1334 611 C 1338 611 1388 597 1450 599 C 1512 601 1542 600 1555 609 C 1568 618 1591 641 1592 646 C 1593 651 1592 653 1593 658 C 1594 663 1598 702 1601 710 C 1604 718 1600 720 1600 720 C 1600 720 1594 774 1589 787 C 1584 800 1561 837 1556 843 C 1551 849 1549 850 1549 850 C 1549 850 1550 852 1547 856 C 1544 860 1545 863 1545 863 C 1545 863 1548 868 1547 873 C 1546 878 1545 882 1545 882 C 1545 882 1547 889 1546 895 C 1545 901 1542 902 1542 902 C 1542 902 1548 906 1546 914 C 1544 922 1543 923 1543 923 C 1543 923 1546 927 1545 935 C 1544 943 1542 945 1542 945 C 1542 945 1545 949 1545 955 C 1545 961 1540 967 1540 967 C 1540 967 1545 969 1544 976 C 1543 983 1539 987 1539 987 C 1539 987 1544 990 1543 996 C 1542 1002 1541 1163 1541 1200 C 1541 1237 1539 1366 1537 1378 C 1535 1390 1524 1396 1519 1398 C 1514 1400 1498 1406 1498 1406 C 1498 1406 1498 1415 1484 1422 C 1470 1429 1161 1573 1161 1573 C 1161 1573 1131 1588 1123 1590 C 1115 1592 1109 1590 1109 1590 L 1082 1601 C 1082 1601 1091 1633 1070 1649 C 1049 1665 1000 1664 989 1647 C 978 1630 976 1616 976 1616 L 551 1599 L 395 1596 C 395 1596 388 1628 350 1633 C 312 1638 277 1638 265 1625 C 253 1612 258 1583 260 1581 C 238 1574 225 1572 212 1553 C 199 1534 204 1475 204 1475 C 204 1475 211 1262 213 1198 C 215 1134 219 967 219 967 L 216 962 C 216 962 136 957 110 914 C 84 871 78 807 106 754 C 134 701 197 673 261 666 C 300 649 352 630 413 637 C 455 624 490 615 547 620 C 582 609 625 601 682 612 C 715 602 742 593 806 604 C 832 602 839 600 846 599 C 853 598 874 597 894 601 C 914 605 925 613 925 613 C 925 613 944 612 951 612 C 958 612 962 614 962 614 C 962 614 961 610 968 608 C 975 606 1003 601 1003 601 zM 1961 1200 C 1961 1200 1965 1235 1920 1232 C 1881 1235 1876 1213 1875 1206 C 1874 1199 1875 1195 1875 1195 C 1875 1195 1852 1195 1847 1195 C 1842 1195 1833 1194 1829 1191 C 1825 1188 1821 1173 1821 1173 L 1815 1114 L 1822 857 L 1823 760 C 1823 760 1784 741 1760 697 C 1736 653 1746 597 1781 560 C 1816 523 1851 512 1885 510 C 1919 508 1928 517 1939 516 C 1950 515 1974 509 1999 515 C 2024 521 2035 527 2045 525 C 2055 523 2085 504 2119 505 C 2153 506 2165 516 2175 519 C 2185 522 2202 515 2209 513 C 2216 511 2239 496 2271 501 C 2303 506 2316 513 2323 514 C 2330 515 2344 515 2352 513 C 2360 511 2387 497 2422 501 C 2457 505 2466 512 2476 513 C 2486 514 2500 516 2513 511 C 2526 506 2544 496 2578 500 C 2612 504 2616 511 2623 512 C 2630 513 2646 515 2650 514 C 2654 513 2671 497 2706 497 C 2741 497 2755 502 2763 505 C 2771 508 2789 512 2796 512 C 2803 512 2836 495 2874 499 C 2912 503 2921 512 2932 514 C 2943 516 2964 513 2982 507 C 3000 501 3020 500 3039 505 C 3058 510 3064 514 3073 515 C 3082 516 3107 515 3125 509 C 3143 503 3165 504 3182 507 C 3199 510 3210 515 3227 516 C 3244 517 3261 512 3274 509 C 3287 506 3310 503 3325 506 C 3340 509 3355 515 3359 515 C 3363 515 3366 515 3368 515 C 3370 515 3372 518 3375 517 C 3378 516 3380 515 3385 515 C 3390 515 3413 508 3432 510 C 3451 512 3463 519 3463 519 C 3463 519 3526 510 3556 514 C 3586 518 3613 533 3641 540 C 3669 547 3703 556 3728 595 C 3753 634 3736 686 3711 713 C 3686 740 3662 755 3662 755 C 3662 755 3663 771 3663 798 C 3663 825 3663 1115 3663 1115 C 3663 1115 3664 1159 3658 1171 C 3652 1183 3639 1182 3629 1182 C 3619 1182 3608 1181 3608 1181 C 3608 1181 3611 1193 3607 1206 C 3603 1219 3596 1221 3590 1221 C 3584 1221 3550 1224 3535 1218 C 3520 1212 3521 1197 3521 1191 C 3521 1185 3521 1182 3521 1182 L 3323 1187 L 2871 1192 L 2244 1198 L 1961 1200 zM 3983 1262 C 3983 1262 3976 1262 3970 1260 C 3964 1258 3964 1254 3964 1254 C 3964 1254 3958 1253 3957 1249 C 3956 1245 3957 1243 3957 1243 L 3955 1025 L 3953 792 C 3953 792 3928 769 3919 728 C 3910 687 3905 672 3906 665 C 3907 658 3912 628 3911 621 C 3910 614 3922 598 3922 598 C 3922 598 3940 571 3953 569 C 3966 567 4050 566 4076 570 C 4102 574 4125 586 4136 585 C 4147 584 4200 568 4236 574 C 4272 580 4291 594 4299 593 C 4307 592 4356 576 4392 580 C 4428 584 4447 597 4458 598 C 4469 599 4507 587 4530 591 C 4553 595 4579 603 4589 602 C 4599 601 4633 593 4667 596 C 4701 599 4710 603 4710 603 C 4710 603 4742 594 4776 598 C 4810 602 4816 608 4823 609 C 4830 610 4855 606 4886 611 C 4917 616 4921 621 4926 621 C 4931 621 4957 618 4987 625 C 5017 632 5025 637 5040 638 C 5055 639 5082 638 5110 643 C 5138 648 5156 655 5156 655 C 5156 655 5202 645 5260 668 C 5296 664 5334 662 5399 687 C 5451 699 5470 703 5516 736 C 5562 769 5587 797 5580 853 C 5573 909 5545 943 5509 961 C 5473 979 5447 981 5447 981 C 5447 981 5453 991 5453 1029 C 5453 1067 5459 1299 5459 1299 C 5459 1299 5461 1442 5462 1463 C 5463 1484 5466 1518 5447 1533 C 5428 1548 5405 1549 5405 1549 C 5405 1549 5411 1573 5401 1585 C 5391 1597 5364 1599 5332 1596 C 5300 1593 5284 1585 5279 1571 C 5274 1557 5274 1556 5274 1556 L 4894 1563 L 4723 1568 C 4723 1568 4723 1571 4721 1573 C 4719 1575 4716 1572 4716 1575 C 4716 1578 4718 1579 4713 1579 C 4708 1579 4705 1578 4704 1578 C 4703 1578 4705 1572 4700 1573 C 4695 1574 4693 1577 4693 1577 C 4693 1577 4696 1580 4691 1577 C 4686 1574 4687 1572 4684 1572 C 4681 1572 4681 1573 4679 1574 C 4677 1575 4676 1576 4675 1574 C 4674 1572 4678 1568 4672 1570 C 4666 1572 4666 1573 4663 1574 C 4660 1575 4658 1578 4658 1576 C 4658 1574 4658 1571 4658 1571 C 4658 1571 4657 1569 4654 1571 C 4651 1573 4650 1579 4650 1573 C 4650 1567 4656 1565 4650 1565 C 4644 1565 4643 1568 4642 1569 C 4641 1570 4639 1573 4639 1571 C 4639 1569 4638 1568 4638 1567 C 4638 1566 4635 1557 4637 1547 C 4605 1536 4579 1530 4579 1530 C 4579 1530 4564 1528 4552 1520 C 4540 1512 4499 1497 4499 1497 L 4263 1398 L 4032 1297 C 4032 1297 4019 1304 4005 1297 C 3991 1290 3999 1277 3999 1277 L 3987 1266 L 3983 1262 z"/>
<path fill="black" stroke="black" fill-rule="evenodd" d="M 3653 1179 C 3644 1180 3631 1185 3619 1182 C 3603 1178 3577 1178 3560 1182 C 3550 1182 3539 1181 3529 1181 C 3509 1185 3476 1184 3454 1184 C 3445 1184 3436 1184 3427 1184 C 3416 1186 3400 1182 3388 1185 C 3376 1188 3360 1183 3347 1186 C 3330 1190 3299 1188 3281 1188 C 3245 1188 3208 1189 3172 1189 C 3152 1189 3127 1186 3109 1190 C 3047 1190 2985 1191 2923 1191 C 2913 1193 2899 1192 2888 1192 C 2865 1192 2842 1192 2819 1192 C 2810 1192 2800 1192 2791 1192 C 2771 1196 2741 1189 2721 1193 C 2701 1197 2674 1194 2653 1194 C 2613 1194 2573 1195 2533 1195 C 2403 1195 2265 1199 2132 1199 C 2075 1199 2018 1200 1961 1200 C 1953 1198 1941 1195 1931 1197 C 1928 1198 1921 1199 1917 1198 C 1894 1193 1862 1195 1836 1194 C 1832 1189 1825 1186 1822 1179 C 1819 1169 1821 1160 1819 1149 C 1815 1132 1815 1111 1816 1092 C 1816 1081 1815 1067 1817 1058 C 1817 1046 1817 1035 1817 1023 C 1817 1008 1819 989 1819 974 C 1819 966 1818 957 1818 949 C 1820 939 1817 924 1820 913 C 1826 890 1822 857 1822 831 C 1822 805 1826 779 1821 759 C 1809 752 1790 737 1782 726 C 1780 723 1780 720 1778 717 C 1777 715 1773 715 1772 713 C 1766 705 1759 696 1755 686 C 1744 660 1746 621 1757 596 C 1774 557 1808 530 1850 516 C 1873 508 1910 511 1936 516 C 1937 516 1959 516 1960 516 C 1965 515 1972 511 1980 513 C 1987 515 1997 514 2005 516 C 2013 518 2023 522 2031 524 C 2049 529 2063 517 2074 513 C 2085 509 2101 507 2111 505 C 2126 503 2150 508 2160 512 C 2167 515 2175 522 2187 519 C 2210 513 2228 506 2252 500 C 2273 495 2307 510 2322 514 C 2342 519 2363 509 2375 505 C 2385 503 2394 502 2404 500 C 2411 498 2420 501 2425 502 C 2430 502 2435 503 2440 503 C 2455 507 2469 510 2485 514 C 2502 518 2517 509 2527 505 C 2535 503 2544 501 2552 499 C 2571 494 2589 503 2601 507 C 2606 509 2612 507 2617 509 C 2618 510 2618 511 2619 512 C 2622 514 2644 517 2650 515 C 2661 511 2671 503 2684 499 C 2717 490 2758 505 2785 512 C 2796 515 2813 504 2821 502 C 2831 499 2843 500 2853 498 C 2876 493 2910 511 2927 515 C 2948 520 2975 508 2989 504 C 2994 503 3000 503 3004 502 C 3019 498 3043 506 3053 510 C 3058 512 3061 516 3068 516 C 3097 517 3123 510 3147 505 C 3150 505 3154 506 3157 506 C 3179 506 3202 511 3222 516 C 3239 520 3263 512 3274 509 C 3279 509 3285 508 3290 508 C 3295 507 3305 502 3313 504 C 3319 505 3328 506 3334 508 C 3341 510 3347 514 3354 516 C 3368 519 3403 513 3414 510 C 3429 506 3444 513 3454 516 C 3459 517 3466 517 3470 518 C 3479 520 3488 516 3493 515 C 3498 514 3510 517 3518 515 C 3525 513 3541 511 3551 513 C 3563 516 3581 517 3592 522 C 3606 528 3620 535 3635 540 C 3644 542 3653 544 3662 546 C 3682 553 3704 565 3716 580 C 3719 584 3721 588 3724 592 C 3725 593 3728 594 3729 595 C 3731 598 3730 602 3732 606 C 3735 613 3741 618 3744 624 C 3743 649 3736 681 3724 698 C 3722 701 3716 703 3713 706 C 3709 712 3705 717 3701 723 C 3695 731 3683 741 3674 747 C 3669 750 3663 750 3662 757 C 3666 763 3663 782 3663 791 C 3663 819 3663 844 3663 873 C 3663 913 3662 952 3662 992 C 3662 1017 3667 1036 3662 1059 C 3662 1065 3662 1072 3662 1078 C 3662 1096 3662 1113 3662 1131 C 3662 1138 3664 1144 3662 1152 C 3661 1156 3660 1168 3658 1172 C 3656 1175 3654 1174 3653 1179 zM 4737 602 C 4752 601 4775 597 4789 600 C 4794 601 4801 603 4806 605 C 4807 605 4810 609 4811 609 C 4814 610 4813 606 4817 607 C 4818 607 4822 610 4824 610 C 4827 611 4831 609 4833 609 C 4841 609 4850 610 4858 610 C 4861 609 4869 608 4874 609 C 4881 611 4889 612 4896 614 C 4901 614 4906 614 4911 614 C 4915 615 4920 620 4924 621 C 4934 624 4949 617 4953 618 C 4956 618 4962 621 4965 622 C 4973 623 4982 624 4990 625 C 5003 629 5017 633 5030 637 C 5041 640 5056 637 5068 640 C 5073 640 5079 640 5084 640 C 5086 641 5089 644 5091 644 C 5096 645 5105 641 5112 643 C 5126 647 5139 650 5153 654 C 5154 652 5154 651 5155 650 C 5164 656 5194 653 5207 656 C 5223 660 5240 663 5255 667 C 5270 667 5286 666 5301 666 C 5324 666 5346 669 5364 675 C 5380 680 5397 686 5413 691 C 5432 697 5449 699 5466 706 C 5486 715 5503 727 5519 739 C 5528 745 5545 757 5551 765 C 5557 773 5577 802 5576 811 C 5576 816 5579 822 5580 826 C 5583 837 5578 848 5576 856 C 5576 863 5575 871 5575 878 C 5564 920 5537 949 5500 965 C 5482 972 5462 973 5442 978 C 5442 979 5442 979 5442 980 C 5445 980 5447 981 5450 981 C 5450 992 5451 1002 5453 1011 C 5456 1023 5452 1038 5454 1048 C 5454 1081 5455 1115 5455 1148 C 5458 1164 5457 1187 5457 1205 C 5457 1211 5457 1218 5457 1224 C 5460 1236 5455 1253 5458 1266 C 5460 1276 5459 1291 5459 1303 C 5459 1323 5459 1347 5459 1367 C 5458 1401 5463 1437 5460 1469 C 5459 1486 5466 1506 5458 1520 C 5449 1537 5426 1545 5405 1550 C 5398 1550 5392 1550 5385 1550 C 5377 1551 5365 1551 5357 1553 C 5344 1553 5331 1554 5318 1554 C 5304 1557 5286 1556 5269 1556 C 5255 1556 5241 1557 5227 1557 C 5216 1557 5205 1557 5194 1557 C 5180 1560 5161 1555 5146 1558 C 5130 1561 5108 1555 5091 1559 C 5080 1561 5064 1560 5052 1560 C 5029 1560 5007 1561 4984 1561 C 4953 1562 4921 1562 4889 1563 C 4872 1563 4852 1565 4838 1560 C 4837 1563 4838 1562 4836 1563 C 4831 1566 4825 1564 4818 1565 C 4802 1568 4779 1567 4761 1567 C 4734 1567 4707 1561 4684 1566 C 4675 1563 4666 1556 4657 1552 C 4646 1547 4634 1547 4622 1543 C 4612 1540 4600 1534 4590 1531 C 4580 1528 4570 1529 4561 1525 C 4548 1520 4536 1512 4523 1506 C 4477 1486 4433 1471 4387 1451 C 4306 1416 4224 1382 4142 1346 C 4125 1339 4108 1329 4091 1322 C 4066 1311 4042 1303 4020 1290 C 4014 1286 4006 1283 4000 1279 C 3993 1274 3989 1263 3979 1262 C 3976 1260 3969 1261 3965 1261 C 3963 1252 3957 1253 3957 1242 C 3953 1236 3956 1218 3956 1209 C 3956 1180 3956 1152 3956 1123 C 3956 1073 3955 1020 3955 968 C 3955 951 3955 935 3955 918 C 3955 910 3956 900 3954 894 C 3954 861 3954 827 3954 794 C 3953 790 3950 791 3949 789 C 3951 786 3946 785 3944 782 C 3938 774 3933 764 3929 755 C 3919 731 3914 700 3907 673 C 3905 665 3909 652 3911 645 C 3913 634 3910 624 3914 617 C 3911 617 3913 619 3911 616 C 3913 613 3913 609 3915 606 C 3921 598 3930 591 3936 583 C 3938 580 3940 575 3943 573 C 3952 567 3991 565 4005 568 C 4027 568 4049 569 4071 569 C 4091 574 4105 581 4124 586 C 4134 588 4147 583 4154 581 C 4160 579 4164 581 4171 579 C 4181 577 4212 569 4225 572 C 4233 574 4241 576 4248 578 C 4249 578 4250 577 4251 577 C 4254 578 4257 582 4260 583 C 4265 584 4269 585 4274 586 C 4279 588 4284 591 4289 593 C 4300 597 4316 595 4330 595 C 4339 582 4370 577 4393 583 C 4412 588 4429 593 4450 598 C 4469 602 4493 595 4509 591 C 4532 586 4567 600 4585 604 C 4595 606 4607 600 4615 598 C 4628 595 4646 596 4660 597 C 4668 597 4682 595 4687 598 C 4693 600 4692 606 4699 607 C 4703 604 4711 605 4719 605 C 4721 609 4724 611 4729 612 C 4731 611 4734 610 4736 610 C 4736 607 4737 605 4737 602 zM 1041 598 C 1067 598 1090 601 1110 607 C 1119 610 1132 617 1144 614 C 1156 611 1170 606 1182 604 C 1186 604 1191 605 1195 605 C 1199 604 1206 602 1211 601 C 1219 601 1226 601 1234 601 C 1235 601 1238 599 1241 600 C 1254 603 1266 604 1279 607 C 1287 607 1294 608 1302 608 C 1310 610 1322 615 1333 612 C 1362 604 1395 599 1432 599 C 1445 599 1462 597 1473 600 C 1482 602 1494 599 1501 601 C 1508 601 1515 601 1522 601 C 1537 604 1550 605 1561 613 C 1568 618 1587 636 1590 644 C 1595 656 1592 668 1595 682 C 1597 690 1599 700 1601 709 C 1602 715 1600 722 1599 726 C 1596 740 1597 752 1594 766 C 1587 793 1577 813 1564 833 C 1559 841 1551 846 1548 856 C 1547 894 1547 932 1546 970 C 1541 992 1545 1023 1544 1047 C 1542 1088 1541 1130 1541 1173 C 1541 1201 1543 1231 1538 1255 C 1537 1260 1538 1268 1539 1271 C 1542 1284 1539 1302 1537 1310 C 1535 1317 1538 1326 1538 1332 C 1538 1337 1538 1341 1538 1346 C 1537 1346 1537 1346 1536 1346 C 1534 1351 1536 1364 1538 1366 C 1536 1372 1535 1383 1533 1389 C 1525 1393 1505 1401 1500 1408 C 1487 1423 1460 1433 1438 1443 C 1398 1461 1359 1481 1318 1499 C 1257 1526 1198 1559 1137 1585 C 1126 1590 1112 1588 1101 1593 C 1088 1598 1073 1603 1059 1609 C 1051 1613 1043 1618 1033 1621 C 1024 1623 1017 1618 1011 1616 C 1004 1614 993 1616 987 1615 C 978 1615 969 1616 960 1616 C 938 1611 911 1617 889 1612 C 863 1611 836 1611 810 1610 C 786 1605 758 1611 734 1606 C 726 1604 716 1606 709 1605 C 701 1603 691 1605 684 1604 C 668 1600 649 1605 634 1602 C 619 1599 601 1603 587 1600 C 564 1600 542 1599 519 1599 C 511 1597 499 1598 490 1598 C 468 1598 446 1597 424 1597 C 403 1595 377 1595 358 1591 C 351 1591 343 1592 336 1592 C 324 1589 309 1589 297 1586 C 292 1586 287 1585 282 1585 C 260 1579 238 1577 222 1565 C 207 1553 197 1511 204 1481 C 206 1473 203 1461 205 1454 C 205 1444 205 1433 205 1423 C 211 1396 203 1357 209 1330 C 209 1320 209 1309 209 1299 C 212 1286 211 1266 211 1252 C 211 1246 211 1241 211 1235 C 214 1223 212 1208 215 1196 C 215 1188 215 1181 215 1173 C 220 1153 216 1124 216 1102 C 216 1089 217 1076 218 1065 C 218 1056 217 1047 217 1038 C 217 1015 218 986 220 965 C 220 965 219 965 219 965 C 219 965 219 964 219 964 C 176 958 129 944 110 914 C 102 902 97 886 92 871 C 88 857 85 832 89 815 C 93 799 92 786 97 773 C 112 737 137 710 170 692 C 187 683 207 677 227 671 C 238 668 249 669 260 666 C 269 663 278 658 287 655 C 305 649 323 646 342 641 C 354 638 371 639 381 637 C 393 637 405 637 417 637 C 424 635 431 631 437 629 C 450 625 463 624 476 621 C 497 616 527 624 546 620 C 567 616 589 612 610 607 C 629 603 655 608 670 611 C 680 613 690 609 697 607 C 710 603 724 604 737 601 C 751 598 787 602 799 604 C 822 609 853 596 878 601 C 887 603 897 604 905 607 C 910 609 914 613 920 614 C 926 616 935 613 940 613 C 960 611 974 610 993 605 C 1006 602 1014 602 1026 599 C 1031 598 1038 600 1041 598 z"/>
</svg>