<svg xmlns="http://www.w3.org/2000/svg" width="1306" height="1306" viewBox="132 270 1306 287">
<path fill="black" stroke="black" fill-rule="evenodd" d="M 511 368 C 558 366 604 364 651 362 C 651 342 649 324 646 308 C 642 308 638 308 634 308 C 629 311 603 310 595 310 C 560 311 526 313 491 314 C 489 316 489 317 489 321 C 492 325 492 332 492 339 C 492 339 491 339 491 339 C 491 339 491 340 491 340 C 484 337 459 330 458 323 C 461 319 460 296 460 289 C 463 287 465 284 468 283 C 487 276 515 283 537 278 C 548 278 558 278 569 278 C 577 276 590 279 600 277 C 608 275 625 274 634 276 C 638 277 646 281 651 280 C 653 280 657 277 659 276 C 676 271 702 273 721 272 C 743 271 767 271 788 271 C 800 271 813 270 820 275 C 835 285 830 330 837 350 C 851 351 866 358 878 362 C 883 363 892 363 894 367 C 894 378 894 390 894 401 C 897 406 893 434 892 442 C 891 442 891 442 890 442 C 884 446 873 442 865 444 C 844 449 819 445 798 450 C 794 450 789 450 785 450 C 760 456 729 451 704 457 C 695 457 686 458 677 458 C 656 462 631 458 610 463 C 597 466 583 463 569 466 C 550 470 527 471 507 471 C 507 471 507 470 507 470 C 510 465 509 458 510 452 C 512 444 511 432 511 423 C 511 405 511 386 511 368 zM 1232 489 C 1233 501 1243 503 1246 512 C 1245 512 1245 512 1244 512 C 1233 505 1212 503 1199 499 C 1166 488 1131 479 1098 468 C 1078 461 1055 459 1040 448 C 1048 423 1028 358 1060 358 C 1064 355 1072 358 1078 357 C 1097 353 1127 353 1148 353 C 1148 357 1147 362 1147 366 C 1178 369 1201 380 1234 381 C 1234 381 1234 380 1234 380 C 1234 380 1235 380 1235 380 C 1235 364 1239 353 1244 342 C 1245 339 1249 330 1248 329 C 1247 325 1247 323 1241 323 C 1235 320 1226 323 1219 321 C 1202 317 1184 317 1170 311 C 1170 310 1171 309 1171 308 C 1178 300 1181 288 1192 284 C 1216 274 1273 288 1296 294 C 1299 295 1306 293 1310 293 C 1323 293 1337 294 1348 296 C 1352 296 1356 296 1360 296 C 1384 301 1420 299 1432 317 C 1438 326 1437 343 1437 357 C 1436 358 1437 357 1436 358 C 1413 361 1386 364 1360 364 C 1359 362 1359 362 1359 360 C 1362 356 1364 348 1364 343 C 1363 342 1363 341 1362 340 C 1343 338 1321 337 1303 333 C 1290 330 1280 327 1264 327 C 1259 336 1253 344 1249 355 C 1248 362 1246 368 1245 375 C 1241 383 1233 388 1230 399 C 1223 420 1227 450 1227 475 C 1226 475 1226 475 1225 475 C 1215 468 1199 469 1187 465 C 1155 455 1119 447 1087 437 C 1074 433 1061 431 1048 427 C 1045 428 1046 429 1045 433 C 1058 444 1080 445 1098 451 C 1129 461 1162 468 1194 478 C 1206 482 1219 487 1232 489 zM 685 359 C 730 356 783 352 830 352 C 829 334 826 316 823 301 C 818 301 813 301 808 301 C 801 305 789 301 781 303 C 750 310 711 301 680 307 C 680 308 680 310 680 311 C 688 320 685 346 685 359 zM 172 329 C 209 329 219 346 234 367 C 243 380 252 396 256 413 C 251 413 245 413 240 413 C 210 414 181 416 151 417 C 149 414 145 413 143 411 C 143 409 142 408 142 406 C 135 392 132 380 132 358 C 157 361 173 359 172 329 zM 1433 399 C 1433 424 1432 444 1431 467 C 1412 469 1389 470 1371 474 C 1364 474 1358 475 1351 475 C 1333 479 1312 481 1291 481 C 1291 463 1287 425 1295 413 C 1302 403 1325 409 1339 406 C 1351 403 1366 406 1379 403 C 1395 399 1415 399 1433 399 zM 870 418 C 867 420 861 418 856 419 C 838 423 816 419 797 423 C 784 426 767 423 753 426 C 744 428 734 426 724 428 C 687 436 645 429 608 437 C 589 441 567 437 549 441 C 538 444 523 438 521 449 C 522 450 521 449 522 451 C 525 452 525 453 530 453 C 533 451 539 453 544 452 C 561 448 581 452 600 448 C 670 443 739 437 809 432 C 825 428 843 431 858 428 C 866 426 875 429 881 425 C 882 424 882 422 882 419 C 879 418 874 418 870 418 zM 177 557 C 177 527 176 495 179 467 C 271 461 362 455 454 449 C 454 450 454 450 454 451 C 458 456 454 465 456 473 C 460 491 455 507 454 525 C 447 527 443 532 436 534 C 350 542 263 549 177 557 z"/>
</svg>