<svg xmlns="http://www.w3.org/2000/svg" width="1425" height="1425" viewBox="87 254 1425 366">
<path fill="black" stroke="black" fill-rule="evenodd" d="M 796 254 C 797 254 799 254 800 254 C 802 259 805 265 806 271 C 796 271 787 271 777 271 C 771 274 743 272 734 272 C 716 272 699 273 681 273 C 665 276 654 279 639 278 C 639 277 638 277 638 276 C 643 273 639 269 642 263 C 645 257 655 258 664 258 C 698 257 731 256 765 255 C 773 255 790 258 796 254 zM 634 276 C 614 276 586 274 569 278 C 559 280 546 277 537 279 C 531 279 525 279 519 279 C 504 279 480 278 468 283 C 465 284 462 288 459 290 C 459 287 459 285 459 282 C 456 278 459 271 459 266 C 464 264 467 263 475 263 C 482 258 498 264 508 262 C 517 260 530 263 540 261 C 549 259 563 262 573 260 C 590 256 612 258 629 259 C 630 261 631 261 632 264 C 634 267 634 271 634 276 zM 1216 281 C 1216 278 1217 275 1218 273 C 1219 269 1223 265 1228 265 C 1234 261 1248 265 1254 265 C 1277 266 1315 266 1325 281 C 1326 280 1325 281 1326 280 C 1337 273 1340 274 1358 274 C 1363 277 1372 274 1379 276 C 1401 281 1442 275 1451 293 C 1453 298 1451 305 1451 310 C 1447 312 1436 323 1433 319 C 1408 296 1385 303 1348 295 C 1339 293 1329 295 1321 293 C 1313 291 1302 295 1296 294 C 1273 288 1244 282 1216 281 zM 826 285 C 827 286 826 285 827 287 C 827 287 826 287 826 287 C 826 286 826 286 826 285 zM 827 288 C 828 289 827 288 828 290 C 828 290 827 290 827 290 C 827 289 827 289 827 288 zM 651 362 C 604 364 558 366 511 368 C 511 399 515 447 507 471 C 510 471 512 471 515 471 C 592 465 669 459 746 453 C 764 451 783 451 800 449 C 806 448 817 446 822 449 C 810 449 797 450 786 452 C 773 455 759 452 747 455 C 717 457 686 459 656 461 C 645 463 630 463 619 465 C 614 465 609 465 604 465 C 592 468 577 465 564 468 C 547 472 527 472 508 472 C 508 508 507 558 484 573 C 461 588 420 583 390 590 C 383 590 377 591 370 591 C 331 600 285 596 246 605 C 229 606 212 608 195 609 C 183 612 169 610 156 613 C 140 617 118 620 101 617 C 95 601 97 583 93 564 C 87 537 89 506 89 474 C 89 443 88 409 93 384 C 96 384 100 384 103 384 C 107 382 126 382 131 381 C 131 374 131 366 131 359 C 124 355 111 328 115 316 C 117 310 123 305 127 301 C 133 301 137 297 144 299 C 158 302 167 316 172 328 C 175 328 178 328 180 329 C 177 329 175 329 172 329 C 173 359 157 361 132 358 C 131 382 137 417 158 417 C 164 413 177 418 185 416 C 192 414 204 417 212 415 C 225 412 242 413 256 413 C 256 412 256 412 256 411 C 247 400 246 378 236 368 C 237 367 236 368 237 367 C 239 364 239 364 243 363 C 249 367 260 366 268 368 C 273 369 280 373 284 374 C 290 376 312 373 317 372 C 324 372 331 372 338 372 C 358 368 382 370 403 370 C 403 355 403 339 404 325 C 422 324 440 323 458 322 C 458 313 456 298 460 292 C 459 304 459 315 458 327 C 463 328 490 340 491 339 C 495 333 489 322 489 315 C 490 314 490 314 491 313 C 501 315 522 314 533 312 C 544 312 554 312 565 312 C 592 311 619 309 646 308 C 646 309 646 309 646 310 C 651 319 651 348 651 362 zM 830 352 C 783 352 730 356 685 359 C 685 349 687 329 684 318 C 683 314 681 312 680 307 C 681 307 681 307 682 307 C 690 302 707 308 717 306 C 732 303 751 308 767 305 C 784 301 804 301 823 301 C 823 302 823 302 823 303 C 828 311 829 339 830 352 zM 892 442 C 894 417 894 394 894 367 C 882 362 867 358 854 354 C 848 352 841 352 837 349 C 835 346 837 340 836 336 C 834 326 833 317 831 307 C 833 307 835 307 837 307 C 843 311 854 309 861 311 C 881 316 907 323 929 324 C 931 327 931 325 934 327 C 938 330 943 340 945 345 C 947 352 944 360 946 368 C 950 389 946 417 942 433 C 930 440 909 440 892 442 zM 1147 366 C 1147 362 1148 357 1148 353 C 1116 355 1084 356 1052 358 C 1049 363 1045 369 1042 374 C 1039 381 1042 400 1043 405 C 1043 406 1041 416 1041 420 C 1041 430 1044 448 1037 449 C 1027 443 1013 445 1006 436 C 990 414 993 346 1014 333 C 1028 324 1051 331 1070 327 C 1099 325 1128 324 1157 322 C 1160 316 1165 314 1169 310 C 1188 320 1220 322 1246 323 C 1247 326 1247 327 1249 329 C 1244 339 1239 351 1236 363 C 1234 369 1237 376 1234 380 C 1231 382 1224 381 1219 381 C 1213 377 1204 378 1196 376 C 1181 372 1164 368 1147 366 zM 1434 321 C 1435 322 1435 322 1435 324 C 1435 324 1434 324 1434 324 C 1434 323 1434 322 1434 321 zM 1435 325 C 1436 327 1436 327 1435 329 C 1435 328 1435 326 1435 325 zM 1232 489 C 1171 472 1110 455 1049 438 C 1047 435 1045 434 1045 429 C 1046 429 1047 428 1048 428 C 1053 426 1087 438 1094 440 C 1111 445 1126 447 1143 452 C 1170 461 1199 469 1227 475 C 1227 470 1227 464 1227 459 C 1225 456 1225 425 1226 420 C 1229 408 1230 394 1236 385 C 1239 381 1244 377 1246 372 C 1253 350 1249 326 1279 327 C 1289 334 1325 335 1340 338 C 1348 340 1357 337 1362 341 C 1364 343 1364 344 1364 347 C 1361 350 1360 357 1359 363 C 1362 364 1366 364 1370 364 C 1374 362 1382 364 1387 363 C 1400 360 1428 363 1436 357 C 1437 356 1437 353 1438 352 C 1445 356 1475 358 1485 360 C 1492 362 1505 359 1508 365 C 1512 371 1511 394 1510 404 C 1505 435 1510 469 1510 501 C 1509 502 1510 501 1509 502 C 1500 502 1489 504 1481 506 C 1477 506 1474 506 1470 506 C 1454 510 1434 509 1418 513 C 1397 518 1375 514 1354 519 C 1339 522 1325 520 1308 524 C 1305 525 1298 526 1294 525 C 1277 521 1261 515 1246 512 C 1243 503 1234 501 1232 489 zM 186 329 C 188 329 188 329 189 330 C 187 330 187 330 186 329 zM 1436 329 C 1438 331 1438 338 1436 340 C 1436 336 1436 333 1436 329 zM 191 330 C 192 330 192 330 193 330 C 193 330 193 331 193 331 C 192 331 192 331 191 331 C 191 331 191 330 191 330 zM 1291 481 C 1311 481 1333 479 1351 475 C 1358 475 1364 474 1371 474 C 1390 470 1412 469 1431 467 C 1432 444 1433 424 1433 399 C 1412 399 1385 400 1366 404 C 1361 404 1357 404 1352 404 C 1335 408 1312 407 1297 411 C 1288 427 1291 457 1291 481 zM 870 418 C 874 418 877 418 881 418 C 882 420 882 422 882 425 C 882 425 881 425 881 425 C 881 425 881 426 881 426 C 857 428 833 431 809 433 C 776 435 744 437 711 439 C 694 443 673 440 656 444 C 651 444 647 444 642 444 C 603 447 564 450 525 453 C 524 451 523 451 522 449 C 521 448 521 448 521 446 C 538 435 570 443 593 438 C 606 435 623 438 637 435 C 646 433 656 435 666 433 C 675 431 685 433 695 431 C 727 424 765 430 797 423 C 816 419 838 423 856 419 C 861 418 867 420 870 418 zM 879 443 C 882 443 885 443 887 444 C 884 444 881 444 879 443 zM 865 444 C 868 444 873 444 875 445 C 872 445 867 445 865 444 zM 852 445 C 856 445 862 444 864 446 C 860 446 854 447 852 445 zM 838 446 C 842 446 849 445 852 447 C 848 447 841 448 838 446 zM 825 447 C 829 447 834 447 836 448 C 832 448 827 448 825 447 zM 179 467 C 176 495 177 526 177 557 C 196 557 224 555 241 551 C 259 547 279 550 296 546 C 303 546 311 545 318 545 C 339 540 364 543 385 538 C 405 534 452 540 454 520 C 457 516 455 509 456 503 C 459 488 457 465 454 449 C 451 449 447 449 444 449 C 440 451 434 449 429 450 C 410 454 388 450 369 454 C 350 458 328 455 309 459 C 304 459 299 459 294 459 C 281 462 264 459 250 462 C 231 466 200 467 179 467 zM 1046 453 C 1047 453 1047 453 1048 453 C 1048 453 1048 454 1048 454 C 1046 453 1047 454 1046 453 zM 1082 464 C 1083 464 1083 464 1084 464 C 1084 464 1084 465 1084 465 C 1082 464 1083 465 1082 464 zM 1106 471 C 1107 471 1107 471 1108 471 C 1108 471 1108 472 1108 472 C 1106 471 1107 472 1106 471 zM 1116 474 C 1117 474 1117 474 1118 474 C 1118 474 1118 475 1118 475 C 1116 474 1117 475 1116 474 zM 1133 479 C 1134 479 1134 479 1135 479 C 1135 479 1135 480 1135 480 C 1133 479 1134 480 1133 479 zM 1140 481 C 1141 481 1141 481 1142 481 C 1142 481 1142 482 1142 482 C 1140 481 1141 482 1140 481 zM 1143 482 C 1144 482 1144 482 1145 482 C 1145 482 1145 483 1145 483 C 1143 482 1144 483 1143 482 zM 1146 483 C 1147 483 1147 483 1148 483 C 1148 483 1148 484 1148 484 C 1146 483 1147 484 1146 483 zM 1150 484 C 1151 484 1151 484 1152 484 C 1152 484 1152 485 1152 485 C 1150 484 1151 485 1150 484 zM 1153 485 C 1154 485 1154 485 1155 485 C 1155 485 1155 486 1155 486 C 1153 485 1154 486 1153 485 zM 1157 486 C 1158 486 1158 486 1159 486 C 1159 486 1159 487 1159 487 C 1157 486 1158 487 1157 486 zM 1174 491 C 1175 491 1175 491 1176 491 C 1176 491 1176 492 1176 492 C 1174 491 1175 492 1174 491 zM 1177 492 C 1178 492 1178 492 1179 492 C 1179 492 1179 493 1179 493 C 1177 492 1178 493 1177 492 zM 1180 493 C 1181 493 1181 493 1182 493 C 1182 493 1182 494 1182 494 C 1180 493 1181 494 1180 493 zM 1184 494 C 1185 494 1185 494 1186 494 C 1186 494 1186 495 1186 495 C 1184 494 1185 495 1184 494 zM 1191 496 C 1192 496 1192 496 1193 496 C 1193 496 1193 497 1193 497 C 1191 496 1192 497 1191 496 zM 1194 497 C 1195 497 1195 497 1196 497 C 1196 497 1196 498 1196 498 C 1194 497 1195 498 1194 497 zM 1197 498 C 1198 498 1198 498 1199 498 C 1199 498 1199 499 1199 499 C 1197 498 1198 499 1197 498 zM 1201 499 C 1202 499 1202 499 1203 499 C 1203 499 1203 500 1203 500 C 1201 499 1202 500 1201 499 zM 1204 500 C 1205 500 1205 500 1206 500 C 1206 500 1206 501 1206 501 C 1204 500 1205 501 1204 500 zM 1208 501 C 1209 501 1209 501 1210 501 C 1210 501 1210 502 1210 502 C 1208 501 1209 502 1208 501 zM 1211 502 C 1212 502 1212 502 1213 502 C 1213 502 1213 503 1213 503 C 1211 502 1212 503 1211 502 zM 1214 503 C 1215 503 1215 503 1216 503 C 1216 503 1216 504 1216 504 C 1214 503 1215 504 1214 503 zM 1217 504 C 1219 504 1219 504 1220 505 C 1218 505 1218 505 1217 504 zM 1221 505 C 1222 505 1222 505 1223 505 C 1223 505 1223 506 1223 506 C 1221 505 1222 506 1221 505 zM 1224 506 C 1226 506 1226 506 1227 507 C 1225 507 1225 507 1224 506 zM 1227 507 C 1229 507 1229 507 1230 508 C 1228 508 1228 508 1227 507 zM 1230 508 C 1232 508 1232 508 1233 509 C 1231 509 1231 509 1230 508 zM 1234 509 C 1236 509 1236 509 1237 510 C 1235 510 1235 510 1234 509 zM 1238 510 C 1239 510 1239 510 1240 510 C 1240 510 1240 511 1240 511 C 1239 511 1239 511 1238 511 C 1238 511 1238 510 1238 510 z"/>
</svg>